<svg width="120" height="72" viewBox="0 0 120 72" fill="none" xmlns="http://www.w3.org/2000/svg">
<rect width="120" height="72" fill="#1C1C28"/>
<path d="M4 64.1445C4.31117 66.2338 6.31153 68.1008 9.31208 68.1008C13.4239 68.1008 15.0465 65.3669 15.0465 62.3664V52.6091H12.2015V53.8982C11.8237 53.1647 10.8235 52.409 9.08982 52.409C6.08927 52.409 4 54.8539 4 57.7433C4 60.8106 6.17818 63.0554 9.08982 63.0554C10.6679 63.0554 11.6903 62.3664 12.1348 61.6552V62.4553C12.1348 64.5668 11.0902 65.5003 9.22318 65.5003C7.82292 65.5003 6.86719 64.6335 6.66715 63.4333L4 64.1445ZM9.60103 60.5216C8.06741 60.5216 6.97832 59.4548 6.97832 57.7433C6.97832 56.0541 8.13409 54.9873 9.60103 54.9873C11.0235 54.9873 12.1793 56.0541 12.1793 57.7433C12.1793 59.4325 11.1124 60.5216 9.60103 60.5216Z" fill="#6966FF"/>
<path d="M21.0146 52.6091H18.0585V63.5444H21.0146V54.6094C21.0813 55.6318 21.9258 56.4098 22.9927 56.4098C24.104 56.4098 24.9708 55.5429 24.9708 54.4316C24.9708 53.3203 24.104 52.4535 22.9927 52.4535C21.9258 52.4535 21.0813 53.2536 21.0146 54.2983V52.6091Z" fill="#6966FF"/>
<path d="M26.0961 60.5661C26.0961 62.2775 27.5185 63.8556 29.8523 63.8556C31.4748 63.8556 32.5195 63.0999 33.0751 62.233C33.0751 62.6553 33.1196 63.2554 33.1862 63.5444H35.8979C35.8312 63.1665 35.7645 62.3886 35.7645 61.8107V56.432C35.7645 54.2316 34.4754 52.2757 31.0081 52.2757C28.0742 52.2757 26.4961 54.1649 26.3183 55.8763L28.941 56.432C29.0299 55.4763 29.7412 54.6539 31.0303 54.6539C32.275 54.6539 32.8751 55.2984 32.8751 56.0764C32.8751 56.4542 32.675 56.7654 32.0527 56.8543L29.3633 57.2544C27.5408 57.5211 26.0961 58.6102 26.0961 60.5661ZM30.4746 61.6552C29.5189 61.6552 29.0522 61.0328 29.0522 60.3883C29.0522 59.5437 29.6523 59.1214 30.408 59.0102L32.8751 58.6324V59.1214C32.8751 61.055 31.7193 61.6552 30.4746 61.6552Z" fill="#6966FF"/>
<path d="M41.6564 57.2544C41.6564 55.9875 42.4121 54.9873 43.7012 54.9873C45.1237 54.9873 45.7238 55.943 45.7238 57.1654V63.5444H48.6799V56.6542C48.6799 54.2538 47.4352 52.3201 44.7236 52.3201C43.5456 52.3201 42.2342 52.8313 41.5675 53.9649V52.6091H38.7003V63.5444H41.6564V57.2544Z" fill="#6966FF"/>
<path d="M55.4384 49.3418H52.7712V50.8754C52.7712 51.8534 52.2378 52.6091 51.0821 52.6091H50.5264V55.2318H52.5045V60.3216C52.5045 62.4331 53.8381 63.7 55.9718 63.7C56.8387 63.7 57.3721 63.5444 57.6388 63.4333V60.9884C57.4832 61.0328 57.0831 61.0773 56.7275 61.0773C55.8829 61.0773 55.4384 60.7661 55.4384 59.8104V55.2318H57.6388V52.6091H55.4384V49.3418Z" fill="#6966FF"/>
<path d="M59.2815 60.4994C59.4148 61.7441 60.5484 63.8778 63.8379 63.8778C66.705 63.8778 68.0831 62.0552 68.0831 60.2771C68.0831 58.6768 66.994 57.3655 64.838 56.921L63.2822 56.5876C62.6821 56.4764 62.282 56.143 62.282 55.6096C62.282 54.9873 62.9044 54.5205 63.6823 54.5205C64.9269 54.5205 65.3937 55.3429 65.4826 55.9875L67.9497 55.4318C67.8164 54.2538 66.7717 52.2757 63.66 52.2757C61.3041 52.2757 59.5704 53.8982 59.5704 55.8541C59.5704 57.3877 60.5261 58.6546 62.6376 59.1214L64.0823 59.4548C64.9269 59.6326 65.2603 60.0326 65.2603 60.5216C65.2603 61.0995 64.7936 61.6107 63.8156 61.6107C62.5265 61.6107 61.8819 60.8106 61.8153 59.9437L59.2815 60.4994Z" fill="#6966FF"/>
<path fill-rule="evenodd" clip-rule="evenodd" d="M90.221 37.2363C90.425 37.2363 90.5904 37.4017 90.5904 37.6058L90.5904 37.6307C90.5904 37.8347 90.425 38.0001 90.221 38.0001C90.017 38.0001 89.8516 37.8347 89.8516 37.6307L89.8516 37.6058C89.8516 37.4017 90.017 37.2363 90.221 37.2363ZM90.221 41.2536C90.425 41.2536 90.5904 41.419 90.5904 41.6231L90.5904 41.673C90.5904 41.877 90.425 42.0424 90.221 42.0424C90.017 42.0424 89.8516 41.877 89.8516 41.673L89.8516 41.6231C89.8516 41.419 90.017 41.2536 90.221 41.2536ZM90.221 45.2959C90.425 45.2959 90.5904 45.4613 90.5904 45.6653L90.5904 45.7152C90.5904 45.9193 90.425 46.0847 90.221 46.0847C90.017 46.0847 89.8516 45.9193 89.8516 45.7152L89.8516 45.6653C89.8516 45.4613 90.017 45.2959 90.221 45.2959ZM90.221 49.3382C90.425 49.3382 90.5904 49.5036 90.5904 49.7076L90.5904 49.7575C90.5904 49.9615 90.425 50.1269 90.221 50.1269C90.017 50.1269 89.8516 49.9615 89.8516 49.7575L89.8516 49.7076C89.8516 49.5036 90.017 49.3382 90.221 49.3382ZM90.221 53.3805C90.425 53.3805 90.5904 53.5459 90.5904 53.7499L90.5904 53.7748C90.5904 53.9789 90.425 54.1443 90.221 54.1443C90.017 54.1443 89.8516 53.9789 89.8516 53.7748L89.8516 53.7499C89.8516 53.5459 90.017 53.3805 90.221 53.3805Z" fill="#55555E"/>
<path fill-rule="evenodd" clip-rule="evenodd" d="M90.221 7.20703C90.425 7.20703 90.5904 7.37243 90.5904 7.57646L90.5904 7.59984C90.5904 7.80387 90.425 7.96926 90.221 7.96926C90.017 7.96926 89.8516 7.80387 89.8516 7.59984L89.8516 7.57646C89.8516 7.37243 90.017 7.20703 90.221 7.20703ZM90.221 10.9715C90.425 10.9715 90.5904 11.1369 90.5904 11.341L90.5904 11.3877C90.5904 11.5918 90.425 11.7572 90.221 11.7572C90.017 11.7572 89.8516 11.5918 89.8516 11.3877L89.8516 11.341C89.8516 11.1369 90.017 10.9715 90.221 10.9715ZM90.221 14.7594C90.425 14.7594 90.5904 14.9248 90.5904 15.1289L90.5904 15.1756C90.5904 15.3797 90.425 15.545 90.221 15.545C90.017 15.545 89.8516 15.3797 89.8516 15.1756L89.8516 15.1289C89.8516 14.9248 90.017 14.7594 90.221 14.7594ZM90.221 18.5473C90.425 18.5473 90.5904 18.7127 90.5904 18.9168L90.5904 18.9401C90.5904 19.1442 90.425 19.3096 90.221 19.3096C90.017 19.3096 89.8516 19.1442 89.8516 18.9401L89.8516 18.9168C89.8516 18.7127 90.017 18.5473 90.221 18.5473Z" fill="#55555E"/>
<path fill-rule="evenodd" clip-rule="evenodd" d="M115.568 28.7972C115.568 29.0012 115.403 29.1666 115.199 29.1666L115.177 29.1666C114.973 29.1666 114.807 29.0012 114.807 28.7972C114.807 28.5931 114.973 28.4277 115.177 28.4277L115.199 28.4277C115.403 28.4277 115.568 28.5931 115.568 28.7972ZM111.97 28.7972C111.97 29.0012 111.804 29.1666 111.6 29.1666L111.556 29.1666C111.352 29.1666 111.186 29.0012 111.186 28.7972C111.186 28.5931 111.352 28.4277 111.556 28.4277L111.6 28.4277C111.804 28.4277 111.97 28.5931 111.97 28.7972ZM108.349 28.7972C108.349 29.0012 108.183 29.1666 107.979 29.1666L107.935 29.1666C107.731 29.1666 107.565 29.0012 107.565 28.7972C107.565 28.5931 107.731 28.4277 107.935 28.4277L107.979 28.4277C108.183 28.4277 108.349 28.5931 108.349 28.7972ZM104.728 28.7972C104.728 29.0012 104.562 29.1666 104.358 29.1666L104.314 29.1666C104.11 29.1666 103.944 29.0012 103.944 28.7972C103.944 28.5931 104.11 28.4277 104.314 28.4277L104.358 28.4277C104.562 28.4277 104.728 28.5931 104.728 28.7972ZM101.107 28.7972C101.107 29.0012 100.942 29.1666 100.738 29.1666L100.693 29.1666C100.489 29.1666 100.323 29.0012 100.323 28.7972C100.323 28.5931 100.489 28.4277 100.693 28.4277L100.738 28.4277C100.942 28.4277 101.107 28.5931 101.107 28.7972ZM97.486 28.7972C97.486 29.0012 97.3206 29.1666 97.1166 29.1666L97.0942 29.1666C96.8902 29.1666 96.7248 29.0012 96.7248 28.7972C96.7248 28.5931 96.8902 28.4277 97.0942 28.4277L97.1166 28.4277C97.3206 28.4277 97.486 28.5931 97.486 28.7972Z" fill="#55555E"/>
<path fill-rule="evenodd" clip-rule="evenodd" d="M83.877 28.7972C83.877 29.0012 83.7116 29.1666 83.5075 29.1666H83.485C83.281 29.1666 83.1156 29.0012 83.1156 28.7972C83.1156 28.5931 83.281 28.4277 83.485 28.4277H83.5075C83.7116 28.4277 83.877 28.5931 83.877 28.7972ZM80.2469 28.7972C80.2469 29.0012 80.0815 29.1666 79.8775 29.1666H79.8324C79.6284 29.1666 79.463 29.0012 79.463 28.7972C79.463 28.5931 79.6284 28.4277 79.8324 28.4277H79.8775C80.0815 28.4277 80.2469 28.5931 80.2469 28.7972ZM76.5943 28.7972C76.5943 29.0012 76.4289 29.1666 76.2249 29.1666H76.1798C75.9758 29.1666 75.8104 29.0012 75.8104 28.7972C75.8104 28.5931 75.9758 28.4277 76.1798 28.4277H76.2249C76.4289 28.4277 76.5943 28.5931 76.5943 28.7972Z" fill="#55555E"/>
<path fill-rule="evenodd" clip-rule="evenodd" d="M90.1983 3.45117H90.2477C90.4517 3.45137 90.617 3.61692 90.6168 3.82095C90.6166 4.02498 90.451 4.19022 90.247 4.19002H90.199C89.995 4.19022 89.8295 4.02498 89.8293 3.82095C89.8291 3.61692 89.9943 3.45137 90.1983 3.45117ZM86.7066 4.06362C86.7381 4.2652 86.6002 4.45414 86.3986 4.48561L86.3514 4.49304C86.1498 4.52491 85.9606 4.38738 85.9288 4.18586C85.8969 3.98434 86.0344 3.79513 86.2359 3.76326L86.2846 3.75561C86.4862 3.72413 86.6752 3.86203 86.7066 4.06362ZM93.7394 4.06362C93.7709 3.86203 93.9598 3.72413 94.1614 3.75561L94.2101 3.76326C94.4116 3.79514 94.5491 3.98434 94.5173 4.18586C94.4854 4.38738 94.2962 4.52491 94.0947 4.49304L94.0474 4.48561C93.8458 4.45414 93.7079 4.2652 93.7394 4.06362ZM97.5632 4.91462C97.626 4.7205 97.8343 4.61407 98.0285 4.67689L98.0752 4.69209C98.2692 4.75529 98.3753 4.96379 98.3121 5.15778C98.2488 5.35177 98.0404 5.45779 97.8464 5.39459L97.801 5.37985C97.6068 5.31702 97.5004 5.10873 97.5632 4.91462ZM82.8828 4.91462C82.9456 5.10873 82.8392 5.31702 82.6451 5.37985L82.5997 5.39459C82.4057 5.45779 82.1972 5.35177 82.134 5.15778C82.0708 4.96379 82.1768 4.75529 82.3708 4.69209L82.4176 4.6769C82.6117 4.61407 82.82 4.7205 82.8828 4.91462ZM101.205 6.35734C101.297 6.17554 101.52 6.10322 101.702 6.19582L101.745 6.21815C101.927 6.3111 101.999 6.53369 101.906 6.71531C101.813 6.89694 101.59 6.96882 101.409 6.87587L101.366 6.85419C101.185 6.76159 101.112 6.53915 101.205 6.35734ZM79.2412 6.35734C79.3338 6.53915 79.2615 6.76159 79.0797 6.85419L79.0372 6.87587C78.8556 6.96882 78.633 6.89694 78.54 6.71532C78.4471 6.53369 78.519 6.3111 78.7006 6.21815L78.7444 6.19582C78.9262 6.10322 79.1486 6.17554 79.2412 6.35734ZM75.8715 8.35399C75.9914 8.51907 75.9548 8.75009 75.7897 8.86999L75.7511 8.89804C75.5863 9.01826 75.3552 8.98208 75.235 8.81723C75.1148 8.65238 75.1509 8.42129 75.3158 8.30107L75.3555 8.27218C75.5206 8.15228 75.7516 8.18891 75.8715 8.35399ZM104.575 8.35399C104.694 8.18891 104.925 8.15228 105.091 8.27218L105.13 8.30107C105.295 8.42129 105.331 8.65238 105.211 8.81723C105.091 8.98208 104.86 9.01826 104.695 8.89804L104.656 8.86999C104.491 8.75009 104.455 8.51907 104.575 8.35399ZM72.8546 10.8521C72.9987 10.9966 72.9985 11.2305 72.8541 11.3746L72.8204 11.4083C72.6762 11.5527 72.4423 11.5529 72.2979 11.4088C72.1535 11.2647 72.1533 11.0308 72.2974 10.8864L72.3321 10.8516C72.4765 10.7075 72.7104 10.7077 72.8546 10.8521ZM107.591 10.8521C107.736 10.7077 107.969 10.7075 108.114 10.8516L108.149 10.8864C108.293 11.0308 108.293 11.2647 108.148 11.4088C108.004 11.5529 107.77 11.5527 107.626 11.4083L107.592 11.3746C107.448 11.2305 107.447 10.9966 107.591 10.8521ZM110.183 13.7892C110.348 13.669 110.579 13.7052 110.699 13.87L110.728 13.9097C110.848 14.0748 110.811 14.3058 110.646 14.4257C110.481 14.5456 110.25 14.509 110.13 14.3439L110.102 14.3054C109.982 14.1405 110.018 13.9094 110.183 13.7892ZM112.285 17.0943C112.467 17.0013 112.689 17.0732 112.782 17.2548L112.804 17.2986C112.897 17.4804 112.825 17.7028 112.643 17.7954C112.461 17.888 112.239 17.8157 112.146 17.6339L112.124 17.5914C112.031 17.4098 112.103 17.1872 112.285 17.0943ZM113.843 20.6882C114.036 20.625 114.245 20.731 114.308 20.925L114.323 20.9718C114.386 21.1659 114.28 21.3742 114.086 21.437C113.892 21.4999 113.683 21.3934 113.62 21.1993L113.606 21.1539C113.542 20.9599 113.649 20.7514 113.843 20.6882ZM114.814 24.483C115.016 24.4511 115.205 24.5887 115.237 24.7902L115.245 24.8389C115.276 25.0405 115.138 25.2294 114.937 25.2609C114.735 25.2924 114.546 25.1545 114.515 24.9529L114.507 24.9056C114.475 24.7041 114.613 24.5149 114.814 24.483ZM115.179 28.3835C115.383 28.3833 115.549 28.5485 115.549 28.7526V28.802C115.549 29.006 115.383 29.1712 115.179 29.171C114.975 29.1708 114.81 29.0053 114.81 28.8012V28.7533C114.81 28.5492 114.975 28.3837 115.179 28.3835ZM114.937 32.2936C115.138 32.3251 115.276 32.5141 115.245 32.7156L115.237 32.7643C115.205 32.9659 115.016 33.1034 114.814 33.0715C114.613 33.0396 114.475 32.8504 114.507 32.6489L114.515 32.6017C114.546 32.4001 114.735 32.2622 114.937 32.2936ZM114.086 36.1175C114.28 36.1803 114.386 36.3886 114.323 36.5827L114.308 36.6295C114.245 36.8235 114.036 36.9295 113.843 36.8663C113.649 36.8031 113.542 36.5946 113.606 36.4006L113.62 36.3552C113.683 36.1611 113.892 36.0546 114.086 36.1175ZM112.643 39.7591C112.825 39.8517 112.897 40.0741 112.804 40.2559L112.782 40.2997C112.689 40.4813 112.467 40.5532 112.285 40.4602C112.103 40.3673 112.031 40.1447 112.124 39.9631L112.146 39.9206C112.239 39.7388 112.461 39.6665 112.643 39.7591ZM110.646 43.1288C110.811 43.2487 110.848 43.4797 110.728 43.6448L110.699 43.6845C110.579 43.8493 110.348 43.8855 110.183 43.7653C110.018 43.6451 109.982 43.414 110.102 43.2491L110.13 43.2106C110.25 43.0455 110.481 43.0089 110.646 43.1288ZM72.2979 46.1457C72.4423 46.0016 72.6762 46.0018 72.8204 46.1462L72.8541 46.1799C72.9985 46.3241 72.9987 46.558 72.8546 46.7024C72.7104 46.8468 72.4765 46.847 72.3321 46.7029L72.2974 46.6681C72.1533 46.5237 72.1535 46.2898 72.2979 46.1457ZM108.148 46.1457C108.293 46.2898 108.293 46.5237 108.149 46.6681L108.114 46.7029C107.969 46.847 107.736 46.8468 107.591 46.7024C107.447 46.558 107.448 46.3241 107.592 46.1799L107.626 46.1462C107.77 46.0018 108.004 46.0016 108.148 46.1457ZM75.235 48.7373C75.3552 48.5724 75.5863 48.5363 75.7511 48.6565L75.7897 48.6845C75.9548 48.8044 75.9914 49.0354 75.8715 49.2005C75.7516 49.3656 75.5206 49.4022 75.3555 49.2823L75.3158 49.2534C75.1509 49.1332 75.1148 48.9021 75.235 48.7373ZM105.211 48.7373C105.331 48.9021 105.295 49.1332 105.13 49.2534L105.091 49.2823C104.925 49.4022 104.694 49.3656 104.575 49.2005C104.455 49.0354 104.491 48.8044 104.656 48.6845L104.695 48.6565C104.86 48.5363 105.091 48.5724 105.211 48.7373ZM78.54 50.8392C78.633 50.6576 78.8556 50.5857 79.0372 50.6786L79.0797 50.7003C79.2615 50.7929 79.3338 51.0154 79.2412 51.1972C79.1486 51.379 78.9262 51.4513 78.7444 51.3587L78.7006 51.3364C78.519 51.2434 78.4471 51.0208 78.54 50.8392ZM101.906 50.8392C101.999 51.0208 101.927 51.2434 101.745 51.3364L101.702 51.3587C101.52 51.4513 101.297 51.379 101.205 51.1972C101.112 51.0154 101.185 50.7929 101.366 50.7003L101.409 50.6786C101.59 50.5857 101.813 50.6576 101.906 50.8392ZM82.134 52.3967C82.1972 52.2027 82.4057 52.0967 82.5997 52.1599L82.6451 52.1747C82.8392 52.2375 82.9456 52.4458 82.8828 52.6399C82.82 52.834 82.6117 52.9404 82.4176 52.8776L82.3708 52.8624C82.1768 52.7992 82.0708 52.5907 82.134 52.3967ZM98.3121 52.3967C98.3753 52.5907 98.2692 52.7992 98.0752 52.8624L98.0285 52.8776C97.8343 52.9404 97.626 52.834 97.5632 52.6399C97.5004 52.4458 97.6068 52.2375 97.801 52.1747L97.8464 52.1599C98.0404 52.0967 98.2488 52.2027 98.3121 52.3967ZM85.9288 53.3687C85.9606 53.1671 86.1498 53.0296 86.3514 53.0615L86.3986 53.0689C86.6002 53.1004 86.7381 53.2893 86.7066 53.4909C86.6752 53.6925 86.4862 53.8304 86.2846 53.7989L86.2359 53.7913C86.0344 53.7594 85.8969 53.5702 85.9288 53.3687ZM94.5173 53.3687C94.5491 53.5702 94.4116 53.7594 94.2101 53.7913L94.1614 53.7989C93.9598 53.8304 93.7709 53.6925 93.7394 53.4909C93.7079 53.2893 93.8458 53.1004 94.0474 53.0689L94.0947 53.0615C94.2962 53.0296 94.4854 53.1671 94.5173 53.3687ZM89.8293 53.7336C89.8294 53.5295 89.995 53.3643 90.199 53.3645H90.247C90.451 53.3643 90.6166 53.5295 90.6168 53.7336C90.617 53.9376 90.4517 54.1031 90.2477 54.1033H90.1983C89.9943 54.1031 89.8291 53.9376 89.8293 53.7336Z" fill="white"/>
<path d="M91.043 53.7337C91.043 54.1871 90.6754 54.5547 90.222 54.5547C89.7686 54.5547 89.4011 54.1871 89.4011 53.7337C89.4011 53.2804 89.7686 52.9128 90.222 52.9128C90.6754 52.9128 91.043 53.2804 91.043 53.7337Z" fill="#6966FF"/>
<path d="M115.178 29.5986C114.725 29.5986 114.357 29.2311 114.357 28.7777C114.357 28.3243 114.725 27.9567 115.178 27.9567C115.632 27.9567 115.999 28.3243 115.999 28.7777C115.999 29.2311 115.632 29.5986 115.178 29.5986Z" fill="#6966FF"/>
<path d="M91.043 3.82066C91.043 4.27405 90.6754 4.6416 90.222 4.6416C89.7686 4.6416 89.4011 4.27405 89.4011 3.82066C89.4011 3.36726 89.7686 2.99972 90.222 2.99972C90.6754 2.99972 91.043 3.36726 91.043 3.82066Z" fill="#6966FF"/>
<path fill-rule="evenodd" clip-rule="evenodd" d="M97.3953 13.3887H104.204L82.2832 44.0895H75.5879L97.3953 13.3887ZM89.3971 22.4352L82.9807 13.3887H76.1459L86.0494 27.3697L89.3971 22.4352ZM87.7186 22.4526L86.025 24.9491L78.813 14.7679H82.2681L87.7186 22.4526ZM78.2593 42.7103H81.5733L101.524 14.7679H98.1074L78.2593 42.7103Z" fill="white"/>
<path fill-rule="evenodd" clip-rule="evenodd" d="M98.8183 42.6842C98.8645 42.7484 98.9389 42.7865 99.018 42.7865H102.203L94.636 32.0414C94.5378 31.9019 94.3309 31.9022 94.233 32.0419L92.8152 34.0674C92.7551 34.1532 92.7559 34.2675 92.8171 34.3525L98.8183 42.6842ZM91.0234 34.222L98.1857 44.1657H104.861L94.4307 29.3545L91.0234 34.222Z" fill="url(#paint0_linear_19348_3255)"/>
<path fill-rule="evenodd" clip-rule="evenodd" d="M27.4096 13.3887H21.5577V22.5238C19.8676 21.6197 17.9273 21.1055 15.8639 21.1055C9.31271 21.1055 4.00195 26.288 4.00195 32.6808C4.00195 39.0737 9.31271 44.2561 15.8639 44.2561C17.9273 44.2561 19.8676 43.742 21.5577 42.8379V43.9805H27.4096V13.3887ZM22.5196 32.6199C22.5196 36.2406 19.5118 39.1758 15.8014 39.1758C12.091 39.1758 9.08313 36.2406 9.08313 32.6199C9.08313 28.9991 12.091 26.0639 15.8014 26.0639C19.5118 26.0639 22.5196 28.9991 22.5196 32.6199ZM51.1208 13.3887L29.3603 43.9806H36.1822L57.9217 13.3887H51.1208ZM68.0944 13.3887H73.9463V43.9805H68.0944V42.8379C66.4043 43.742 64.464 44.2561 62.4006 44.2561C55.8494 44.2561 50.5386 39.0737 50.5386 32.6808C50.5386 26.288 55.8494 21.1055 62.4006 21.1055C64.464 21.1055 66.4043 21.6197 68.0944 22.5238V13.3887ZM62.3381 39.1758C66.0485 39.1758 69.0563 36.2406 69.0563 32.6199C69.0563 28.9991 66.0485 26.0639 62.3381 26.0639C58.6277 26.0639 55.6198 28.9991 55.6198 32.6199C55.6198 36.2406 58.6277 39.1758 62.3381 39.1758ZM43.0152 22.6762L36.1879 13.3887H29.082L39.2532 27.8663L43.0152 22.6762Z" fill="white"/>
<defs>
<linearGradient id="paint0_linear_19348_3255" x1="99.6897" y1="41.8344" x2="88.6571" y2="26.6755" gradientUnits="userSpaceOnUse">
<stop stop-color="#6966FF"/>
<stop offset="1" stop-color="#6966FF" stop-opacity="0.36"/>
</linearGradient>
</defs>
</svg>
