<svg aria-hidden="true" xmlns="http://www.w3.org/2000/svg" xmlns:xlink="http://www.w3.org/1999/xlink"><symbol viewBox="0 0 24 24" fill="none" id="discord" xmlns="http://www.w3.org/2000/svg">
<path d="M20.317 4.15704C18.7873 3.45516 17.147 2.93804 15.4319 2.64187C15.4007 2.63615 15.3695 2.65044 15.3534 2.67901C15.1424 3.05422 14.9087 3.54372 14.7451 3.92846C12.9004 3.65229 11.0652 3.65229 9.25832 3.92846C9.09465 3.53517 8.85248 3.05422 8.64057 2.67901C8.62449 2.65139 8.59328 2.6371 8.56205 2.64187C6.84791 2.93709 5.20756 3.45421 3.67693 4.15704C3.66368 4.16275 3.65233 4.17228 3.64479 4.18466C0.533392 8.83302 -0.31895 13.3671 0.0991801 17.845C0.101072 17.8669 0.11337 17.8879 0.130398 17.9012C2.18321 19.4087 4.17171 20.3239 6.12328 20.9306C6.15451 20.9401 6.18761 20.9287 6.20748 20.903C6.66913 20.2725 7.08064 19.6078 7.43348 18.9088C7.4543 18.8678 7.43442 18.8193 7.39186 18.8031C6.73913 18.5555 6.1176 18.2536 5.51973 17.9107C5.47244 17.8831 5.46865 17.8155 5.51216 17.7831C5.63797 17.6888 5.76382 17.5907 5.88396 17.4917C5.90569 17.4736 5.93598 17.4698 5.96153 17.4812C9.88928 19.2745 14.1415 19.2745 18.023 17.4812C18.0485 17.4688 18.0788 17.4726 18.1015 17.4907C18.2216 17.5898 18.3475 17.6888 18.4742 17.7831C18.5177 17.8155 18.5149 17.8831 18.4676 17.9107C17.8697 18.2602 17.2482 18.5555 16.5945 18.8021C16.552 18.8183 16.533 18.8678 16.5538 18.9088C16.9143 19.6068 17.3258 20.2716 17.7789 20.902C17.7978 20.9287 17.8319 20.9401 17.8631 20.9306C19.8241 20.3239 21.8126 19.4087 23.8654 17.9012C23.8834 17.8879 23.8948 17.8679 23.8967 17.846C24.3971 12.669 23.0585 8.1721 20.3482 4.1856C20.3416 4.17228 20.3303 4.16275 20.317 4.15704ZM8.02002 15.1184C6.8375 15.1184 5.86313 14.0328 5.86313 12.6995C5.86313 11.3662 6.8186 10.2806 8.02002 10.2806C9.23087 10.2806 10.1958 11.3758 10.1769 12.6995C10.1769 14.0328 9.22141 15.1184 8.02002 15.1184ZM15.9947 15.1184C14.8123 15.1184 13.8379 14.0328 13.8379 12.6995C13.8379 11.3662 14.7933 10.2806 15.9947 10.2806C17.2056 10.2806 18.1705 11.3758 18.1516 12.6995C18.1516 14.0328 17.2056 15.1184 15.9947 15.1184Z" fill="currentColor"/>
</symbol><symbol viewBox="0 0 24 24" fill="none" id="twitter" xmlns="http://www.w3.org/2000/svg">
<path d="M7.55016 21.7507C16.6045 21.7507 21.5583 14.2474 21.5583 7.74259C21.5583 7.53166 21.5536 7.31603 21.5442 7.10509C22.5079 6.40819 23.3395 5.54499 24 4.55603C23.1025 4.95533 22.1496 5.21611 21.1739 5.32947C22.2013 4.71364 22.9705 3.7462 23.3391 2.6065C22.3726 3.17929 21.3156 3.58334 20.2134 3.80134C19.4708 3.01229 18.489 2.48985 17.4197 2.31478C16.3504 2.13972 15.2532 2.32178 14.2977 2.83283C13.3423 3.34388 12.5818 4.15544 12.1338 5.14204C11.6859 6.12865 11.5754 7.23535 11.8195 8.29103C9.86249 8.19282 7.94794 7.68444 6.19998 6.79883C4.45203 5.91323 2.90969 4.67017 1.67297 3.15025C1.0444 4.23398 0.852057 5.51638 1.13503 6.73682C1.418 7.95727 2.15506 9.02418 3.19641 9.72072C2.41463 9.6959 1.64998 9.48541 0.965625 9.10666V9.16759C0.964925 10.3049 1.3581 11.4073 2.07831 12.2875C2.79852 13.1677 3.80132 13.7713 4.91625 13.9957C4.19206 14.1939 3.43198 14.2227 2.69484 14.0801C3.00945 15.0582 3.62157 15.9136 4.44577 16.5271C5.26997 17.1405 6.26512 17.4813 7.29234 17.502C5.54842 18.8718 3.39417 19.6149 1.17656 19.6113C0.783287 19.6107 0.390399 19.5866 0 19.5392C2.25286 20.9845 4.87353 21.7521 7.55016 21.7507Z" fill="currentColor"/>
</symbol></svg>