<svg width="480" height="48" viewBox="0 0 480 48" fill="none" xmlns="http://www.w3.org/2000/svg">
<path fill-rule="evenodd" clip-rule="evenodd" d="M314.295 0.283913C314.162 0.419361 310.337 0.541388 305.796 0.556083C299.951 0.574611 297.536 0.800145 297.53 1.32724C297.522 1.87542 297.398 1.88053 297.058 1.34768C296.765 0.890229 294.974 0.693447 292.191 0.812922C287.045 1.03334 283.388 1.12407 282.281 1.05826C281.289 0.999484 260.103 1.70803 260.103 1.80003C260.103 1.83772 258.546 1.95081 256.643 2.05176C251.919 2.30221 252.056 2.25429 252.494 3.5091C252.792 4.36331 252.622 4.30709 251.775 3.2727C250.923 2.23321 250.153 1.98276 248.463 2.19615C247.252 2.34885 245.2 2.50346 243.902 2.53988C242.389 2.58205 241.542 2.91108 241.542 3.45671C241.542 4.46745 240.485 4.60099 240.166 3.63049C240.044 3.25737 239.1 2.97114 238.069 2.99414C231.772 3.13342 230.485 3.28229 230.069 3.91863C229.747 4.41315 229.604 4.38631 229.597 3.82855C229.591 3.26823 228.303 3.02992 225.289 3.02992C222.924 3.02992 220.808 3.21392 220.586 3.43882C220.365 3.66371 217.699 3.94611 214.662 4.06686C202.469 4.54987 200.022 4.78563 199.096 5.56637C198.564 6.01424 198.129 6.11966 198.129 5.80085C198.129 5.48139 197.595 5.22072 196.943 5.22072C196.233 5.22072 195.88 5.55167 196.066 6.04171C196.487 7.15724 195.911 7.07546 194.703 5.84877C193.805 4.93705 193.425 4.93002 190.968 5.7804C189.457 6.30303 187.869 6.49789 187.419 6.2155C186.97 5.93374 186.295 5.82129 185.917 5.96568C185.54 6.10944 183.674 6.3535 181.771 6.50747C174.453 7.10038 170.725 7.53739 169.816 7.90987C169.297 8.12199 167.415 8.24146 165.633 8.17501C163.851 8.10857 162.23 8.32324 162.03 8.651C161.83 8.97939 160.985 9.11548 160.151 8.9532C159.317 8.79156 157.005 9.00303 155.012 9.42279C153.019 9.84319 150.085 10.2955 148.491 10.4284C146.897 10.5613 144.744 10.8175 143.705 10.9977C142.667 11.1779 140.119 11.4833 138.043 11.6768C131.541 12.2812 121.346 13.8363 120.525 14.3487C120.233 14.5302 118.534 14.7698 116.75 14.8803C112.713 15.1308 111.112 15.4924 108.753 16.6871C107.694 17.2238 106.899 17.3497 106.899 16.9804C106.899 16.215 101.656 16.9561 101.352 17.7643C101.244 18.0544 100.748 18.1336 100.251 17.94C99.6731 17.7145 99.3485 18.0014 99.3485 18.7367C99.3485 19.828 99.3063 19.8267 98.5004 18.7073C97.9467 17.9394 97.3553 17.7158 96.7984 18.0652C96.3291 18.3598 95.0827 18.6958 94.0288 18.8128C92.9749 18.929 92.0236 19.2926 91.9135 19.6203C91.7965 19.9711 91.1333 19.9922 90.3035 19.6715C89.0193 19.1757 83.8538 20.1117 81.1024 21.339C80.5833 21.5703 79.7761 21.6949 79.3092 21.6163C78.7801 21.5268 78.641 21.7709 78.9405 22.2628C79.2916 22.8404 79.0972 22.9158 78.217 22.542C76.471 21.8009 73.037 22.1044 70.9871 23.181C70.01 23.694 68.3163 24.1138 67.2234 24.1138C66.1299 24.1138 62.9305 24.6837 60.1137 25.3801C57.2962 26.0758 54.2133 26.8003 53.2613 26.9895C52.2339 27.1933 51.5311 27.7485 51.5311 28.3567C51.5311 29.2077 51.3663 29.2429 50.5609 28.5637C49.8254 27.944 49.4133 27.9255 48.8621 28.4851C48.4614 28.8921 47.466 29.225 46.6506 29.225C43.8199 29.225 39.5768 30.6344 39.5768 31.5749C39.5768 32.1064 39.271 32.3026 38.852 32.04C38.4537 31.7902 37.7459 32.1154 37.279 32.7632C36.8128 33.4117 36.4309 33.5989 36.4309 33.1804C36.4309 32.762 35.7231 32.4195 34.8579 32.4195C33.9928 32.4195 33.285 32.7377 33.285 33.1268C33.285 33.5159 32.8377 33.6596 32.2915 33.4469C30.5084 32.7517 28.2535 33.728 28.2315 35.2038C28.212 36.5449 28.1931 36.5475 27.2877 35.3323C26.3735 34.1043 26.3641 34.1043 26.3546 35.3323C26.3471 36.2485 26.2068 36.3513 25.8167 35.7265C25.3851 35.0358 24.8389 35.0773 22.8375 35.9546C21.4898 36.5455 19.1128 37.4049 17.5556 37.8649C11.0814 39.7758 8.74902 41.0505 9.2014 42.4292C9.33416 42.833 9.10073 43.378 8.68296 43.6406C8.20038 43.9434 8.08713 43.8482 8.37278 43.3799C9.79912 41.0351 5.07778 41.5744 2.98074 43.9952C2.36603 44.705 1.83815 44.9146 1.70288 44.5025C1.57642 44.1166 1.06993 44.5651 0.577285 45.4991C-0.189051 46.9527 -0.190938 47.2772 0.562815 47.75C1.83564 48.5486 3.70555 47.3219 3.75777 45.6544C3.79678 44.4149 3.85844 44.3836 4.25419 45.4046C4.79088 46.7865 5.57169 46.9105 6.30782 45.7311C6.67023 45.1503 6.84325 45.1209 6.85017 45.6391C6.85709 46.1904 7.33589 46.1476 8.58984 45.4832C9.54179 44.9791 10.8159 44.5651 11.4211 44.5625C12.0264 44.5606 12.5222 44.1364 12.5222 43.6201C12.5222 43.049 12.8909 42.826 13.466 43.0496C13.985 43.2521 14.9049 43.2048 15.5108 42.9454C16.116 42.6854 17.3153 42.3794 18.1753 42.2656C20.4624 41.9622 22.6777 40.6032 22.3399 39.71C22.17 39.2609 22.4915 39.004 23.1043 39.0999C23.6863 39.1906 24.3545 38.8028 24.5898 38.238C24.9616 37.3448 25.0233 37.3589 25.0617 38.3447C25.0969 39.2519 25.5128 39.4187 27.1505 39.1817C32.5973 38.3933 37.6137 36.3264 37.1903 35.046C36.9852 34.4257 37.1582 34.3241 37.7647 34.7087C38.9463 35.4575 40.3129 35.6236 41.1138 35.115C41.4794 34.8831 42.3451 34.6595 43.0372 34.6186C44.1037 34.5547 48.664 33.5951 55.3062 32.0362C56.1713 31.8336 57.5869 31.5065 58.452 31.3091C59.3172 31.1123 60.2332 30.635 60.4874 30.2479C60.802 29.7693 60.9524 29.8115 60.9593 30.3808C60.9643 30.8408 61.2764 31.0241 61.6527 30.7877C62.0289 30.552 62.1994 29.8256 62.0321 29.1745C61.6948 27.8667 62.6594 27.8124 63.9875 29.0653C65.0288 30.0479 65.9292 30.0619 69.4985 29.149C71.0362 28.756 72.2939 28.0628 72.2939 27.6086C72.2939 26.769 73.7888 26.6968 74.5772 27.4974C74.815 27.7389 75.3895 27.6156 75.8538 27.2246C76.4773 26.6988 76.6982 26.7064 76.6982 27.2527C76.6982 27.7587 77.0455 27.8034 77.7992 27.3939C79.0796 26.6988 82.1714 26.0694 86.0207 25.7225C87.5143 25.5871 89.103 25.1686 89.5503 24.791C89.9983 24.414 91.6071 23.9917 93.1259 23.8537C94.6454 23.7151 96.1007 23.5732 96.3599 23.5381C96.6191 23.5036 96.8519 22.972 96.8758 22.3568C96.9123 21.4419 96.9979 21.4125 97.3477 22.197C97.7756 23.1548 100.634 23.4244 102.494 22.682C103.82 22.153 109.003 21.4489 113.768 21.1505C115.989 21.0112 118.142 20.6145 118.552 20.2688C118.962 19.9232 119.977 19.6657 120.806 19.697C123.231 19.7877 134.227 18.2984 134.577 17.832C134.753 17.5969 135.605 17.4091 136.47 17.4136C137.335 17.4187 138.539 17.0149 139.144 16.5159C139.986 15.8227 140.245 15.801 140.245 16.4226C140.245 16.9714 140.704 17.0896 141.661 16.7881C142.439 16.5421 143.975 16.3722 145.074 16.4105C146.172 16.4488 147.251 16.1843 147.471 15.8233C147.735 15.3902 148.259 15.3767 149.009 15.7837C149.635 16.1236 150.343 16.2028 150.582 15.9594C150.821 15.7166 152.204 15.4355 153.653 15.3359C157.819 15.0483 162.552 14.6247 162.895 14.5078C163.068 14.449 164.13 14.4516 165.255 14.5142C166.427 14.5794 167.3 14.3187 167.3 13.9028C167.3 13.5035 167.583 13.3546 167.929 13.5718C168.275 13.7891 168.558 13.6619 168.558 13.2901C168.558 12.9182 168.858 12.6135 169.224 12.6135C169.59 12.6135 169.716 12.901 169.502 13.2524C169.288 13.6038 169.696 13.8913 170.408 13.8913C171.12 13.8913 171.704 13.6741 171.704 13.4089C171.704 13.1431 173.615 12.8997 175.951 12.8678C178.286 12.8352 181.33 12.5943 182.714 12.3324C184.099 12.071 185.883 11.8813 186.681 11.9113C187.579 11.9452 187.97 11.6998 187.706 11.2679C187.401 10.7658 187.645 10.767 188.574 11.2718C190.051 12.0742 195.612 12.2321 195.612 11.4718C195.612 10.6942 198.287 10.6731 199.201 11.4436C199.741 11.8985 200.017 11.9088 200.017 11.4737C200.017 11.1121 200.583 10.967 201.275 11.1504C201.967 11.3344 202.533 11.2354 202.533 10.9312C202.533 10.6265 204.511 10.415 206.929 10.4617C210.05 10.5217 211.201 10.3364 210.898 9.82275C210.663 9.42471 210.95 9.49435 211.536 9.97608C212.121 10.4585 212.601 10.6022 212.601 10.2955C212.601 9.9895 214.492 9.72883 216.802 9.71669C219.602 9.702 221.092 9.42663 221.267 8.89123C221.47 8.27532 221.737 8.26191 222.413 8.83181C222.899 9.24071 223.301 9.3244 223.306 9.01773C223.311 8.71169 223.574 8.87525 223.89 9.38254C224.35 10.1211 224.779 10.1595 226.041 9.57549C227.242 9.01965 227.69 9.02795 227.926 9.61191C228.126 10.1103 228.415 10.1543 228.754 9.73841C229.039 9.38701 230.547 9.08034 232.105 9.05734C233.662 9.03434 235.644 8.85481 236.509 8.65866C237.374 8.46252 238.43 8.58327 238.855 8.92764C239.36 9.3359 240.246 9.33462 241.406 8.92381C242.384 8.57816 244.409 8.40693 245.908 8.54366C247.406 8.68102 249.52 8.54366 250.606 8.23954C251.692 7.93479 253.18 7.91051 253.911 8.18587C255.049 8.6133 255.199 8.48425 254.944 7.29524C254.713 6.21997 254.79 6.11263 255.282 6.82309C256.068 7.95715 259.785 8.34304 259.798 7.29269C259.803 6.85951 260.065 6.94768 260.418 7.50225C260.753 8.02934 261.032 8.20951 261.037 7.90348C261.042 7.5968 261.446 7.68242 261.935 8.09387C262.951 8.95064 263.92 7.96546 263.209 6.7969C262.973 6.40909 263.529 6.59053 264.445 7.20005C265.957 8.20568 267.342 8.2619 279.465 7.80764C286.81 7.53227 293.457 7.3208 294.236 7.33741C295.015 7.35338 295.651 7.10996 295.651 6.79562C295.651 6.48128 296.093 6.22444 296.632 6.22444C297.172 6.22444 297.453 6.48767 297.257 6.80904C296.746 7.6492 304.367 7.21347 305.213 6.35414C305.667 5.89349 306.293 5.8526 307.001 6.23786C307.6 6.5637 309.043 6.83971 310.207 6.85121C311.372 6.86335 313.528 6.94257 314.999 7.02754C317.021 7.1451 317.675 6.94896 317.682 6.22444C317.69 5.5159 317.82 5.47181 318.185 6.05513C318.71 6.89465 321.531 6.96493 339.065 6.57839C350.692 6.32155 349.711 6.32858 357.888 6.44806C362.641 6.5177 364.513 6.32475 364.703 5.74526C364.848 5.30633 365.225 4.94663 365.542 4.94663C365.859 4.94663 366.048 5.30633 365.962 5.74526C365.771 6.71703 369.98 6.85951 370.671 5.90499C370.959 5.50631 371.137 5.5587 371.143 6.04555C371.149 6.52409 372.001 6.79179 373.355 6.74067C374.566 6.69403 375.557 6.43208 375.557 6.15735C375.557 5.88326 376.194 5.81746 376.972 6.01041C379.083 6.53495 391.095 6.41995 391.976 5.86729C392.459 5.56381 392.576 5.65582 392.295 6.11774C391.66 7.16043 396.51 6.75026 397.815 5.6507C398.678 4.92299 398.836 4.93577 398.836 5.73057C398.836 6.39566 399.474 6.64292 401.018 6.57456C402.218 6.52217 403.365 6.31133 403.566 6.10688C403.768 5.90179 404.977 5.97335 406.253 6.26597C407.529 6.55795 409.78 6.6295 411.255 6.42378C413.607 6.09666 413.946 5.84557 414.011 4.38056C414.083 2.76413 414.098 2.7718 414.485 4.60354C414.874 6.4455 414.997 6.50109 418.972 6.64931C421.22 6.73301 423.626 6.92276 424.318 7.06971C425.01 7.2173 425.869 7.10357 426.227 6.81734C426.918 6.26405 428.313 6.32986 429.351 6.96429C429.697 7.17577 430.83 7.22113 431.868 7.06524C432.906 6.90999 434.039 6.82501 434.385 6.87612C434.731 6.92723 437.845 7.07227 441.306 7.19749C444.766 7.32336 448.546 7.60511 449.705 7.82425C451.232 8.11304 452.143 7.92009 453.008 7.12465C453.789 6.40716 454.204 6.29919 454.204 6.81351C454.204 7.31824 454.967 7.53355 456.335 7.41344C457.508 7.31122 458.945 7.63003 459.529 8.12199C460.441 8.89123 460.672 8.88803 461.163 8.10026C461.56 7.46327 461.738 7.42686 461.744 7.98143C461.75 8.42099 462.339 8.78006 463.054 8.78006C464.088 8.78006 464.283 8.48488 464.004 7.34252C463.811 6.5522 463.816 6.26469 464.015 6.70362C464.213 7.14318 464.652 7.50225 464.989 7.50225C465.327 7.50225 465.42 7.14318 465.197 6.70362C464.973 6.26469 465.338 6.5867 466.007 7.42047C467.047 8.71681 467.279 8.78581 467.615 7.89965C468.097 6.62184 469.677 6.54133 470.141 7.77122C470.494 8.70339 471.577 8.77878 472.865 7.96162C473.771 7.38597 475.741 8.07982 476.414 9.21132C477.084 10.339 480 10.3115 480 9.17745C480 7.83576 478.589 6.93043 475.863 6.52281C474.505 6.32028 472.544 5.90819 471.506 5.6079C470.468 5.30762 469.194 5.05908 468.675 5.05524C468.156 5.05205 467.023 4.85463 466.158 4.61632C463.686 3.93653 457.964 3.02481 454.518 2.76158C452.788 2.62933 450.098 2.34374 448.541 2.12651C446.984 1.90928 441.038 1.58536 435.329 1.40583C429.619 1.22693 423.531 0.957956 421.801 0.809091C413.921 0.129297 399.893 -0.100069 398.908 0.435333C398.312 0.759257 397.482 0.808451 397.062 0.545861C396.643 0.282633 394.875 0.252607 393.133 0.479417C391.393 0.706228 389.84 0.683227 389.686 0.428304C389.402 -0.0361792 314.751 -0.179292 314.295 0.283913ZM398.522 2.39102C398.736 2.74241 398.61 3.02992 398.244 3.02992C397.878 3.02992 397.578 2.74241 397.578 2.39102C397.578 2.03962 397.703 1.75211 397.855 1.75211C398.008 1.75211 398.308 2.03962 398.522 2.39102ZM429.666 4.30773C429.295 5.01052 428.888 5.58554 428.759 5.58554C428.63 5.58554 428.674 5.01052 428.854 4.30773C429.036 3.60493 429.444 3.02992 429.762 3.02992C430.081 3.02992 430.038 3.60174 429.666 4.30773ZM377.444 4.30773C377.444 4.65913 377.32 4.94663 377.167 4.94663C377.014 4.94663 376.714 4.65913 376.501 4.30773C376.287 3.95633 376.412 3.66882 376.778 3.66882C377.144 3.66882 377.444 3.95633 377.444 4.30773ZM284.326 5.30378C284.326 5.85132 284.043 6.12222 283.697 5.90499C283.351 5.68776 283.068 5.23989 283.068 4.90894C283.068 4.57799 283.351 4.30773 283.697 4.30773C284.043 4.30773 284.326 4.75624 284.326 5.30378ZM472.758 8.79028C472.54 9.14742 472.099 9.27457 471.777 9.07204C471.455 8.87014 471.192 9.00942 471.192 9.38127C471.192 10.3581 472.169 10.2125 473.079 9.09951C473.51 8.57241 473.703 8.14115 473.508 8.14115C473.313 8.14115 472.975 8.43313 472.758 8.79028ZM175.479 10.6968C175.479 11.0482 175.354 11.3357 175.201 11.3357C175.048 11.3357 174.749 11.0482 174.535 10.6968C174.321 10.3454 174.446 10.0579 174.812 10.0579C175.179 10.0579 175.479 10.3454 175.479 10.6968ZM18.2999 40.225C17.8488 40.6831 17.5556 40.7208 17.5556 40.3208C17.5556 39.4679 18.2999 38.7121 18.7196 39.1389C18.8983 39.3203 18.7095 39.8091 18.2999 40.225Z" fill="#6966FF"/>
</svg>
